<?xml version="1.0" encoding="utf-8"?>
<!-- Generator: Adobe Illustrator 19.0.0, SVG Export Plug-In . SVG Version: 6.00 Build 0)  -->
<svg version="1.1" id="Layer_1" xmlns="http://www.w3.org/2000/svg" xmlns:xlink="http://www.w3.org/1999/xlink" x="0px" y="0px"
	 viewBox="0 0 224.9 224.9" style="enable-background:new 0 0 224.9 224.9;" xml:space="preserve">
<style type="text/css">
	.st0{fill:#CCCACA;}
</style>
<path id="XMLID_160_" class="st0" d="M192.6,1H32.3C14.5,1,0,15.5,0,33.3v158.3c0,17.8,14.5,32.3,32.3,32.3h160.2
	c17.8,0,32.3-14.5,32.3-32.3V33.3C224.9,15.5,210.4,1,192.6,1z M218.1,191.6c0,14.1-11.4,25.5-25.5,25.5h-36v-72.4h25.5
	c1.9,0,3.4-1.5,3.4-3.4l0-27.5c0-0.9-0.4-1.8-1-2.4c-0.6-0.6-1.5-1-2.4-1h-25.5V94.3c0-7.7,1.8-11.7,11.9-11.7l14.6,0
	c1.9,0,3.4-1.5,3.4-3.4V53.6c0-1.9-1.5-3.4-3.4-3.4l-21.7,0c-24.4,0-40.2,16.2-40.2,41.2v19H99.4c-1.9,0-3.4,1.5-3.4,3.4v27.5
	c0,1.9,1.5,3.4,3.4,3.4h21.8v72.4H32.3c-14.1,0-25.5-11.4-25.5-25.5V33.3c0-14.1,11.4-25.5,25.5-25.5h160.2
	c14.1,0,25.5,11.4,25.5,25.5V191.6z"/>
</svg>
