<?xml version="1.0" encoding="utf-8"?>
<!-- Generator: Adobe Illustrator 19.0.0, SVG Export Plug-In . SVG Version: 6.00 Build 0)  -->
<svg version="1.1" id="Layer_1" xmlns="http://www.w3.org/2000/svg" xmlns:xlink="http://www.w3.org/1999/xlink" x="0px" y="0px"
	 viewBox="-543 1245 512 512" style="enable-background:new -543 1245 512 512;" xml:space="preserve">
<style type="text/css">
	.st0{fill:#565656;}
</style>
<g>
	<g>
		<path class="st0" d="M-34.1,1738.8L-189.9,1583c32.4-35.9,52.2-83.3,52.2-135.3c0-111.7-90.9-202.7-202.7-202.7
			S-543,1335.9-543,1447.7s90.9,202.7,202.7,202.7c52,0,99.4-19.9,135.3-52.2l155.8,155.8c2.1,2.1,4.8,3.1,7.5,3.1s5.5-1,7.5-3.1
			C-30,1749.7-30,1743-34.1,1738.8z M-340.3,1629c-100,0-181.3-81.3-181.3-181.3s81.4-181.3,181.3-181.3s181.3,81.3,181.3,181.3
			S-240.4,1629-340.3,1629z"/>
	</g>
</g>
</svg>
